<?xml version="1.0" encoding="utf-8"?>
<!-- Generator: Adobe Illustrator 16.0.0, SVG Export Plug-In . SVG Version: 6.00 Build 0)  -->
<!DOCTYPE svg PUBLIC "-//W3C//DTD SVG 1.1//EN" "http://www.w3.org/Graphics/SVG/1.1/DTD/svg11.dtd">
<svg version="1.1" id="Layer_1" xmlns="http://www.w3.org/2000/svg" xmlns:xlink="http://www.w3.org/1999/xlink" x="0px" y="0px"
	 width="217.644px" height="168.254px" viewBox="0 0 217.644 168.254" enable-background="new 0 0 217.644 168.254"
	 xml:space="preserve">
<polygon opacity="0.1" stroke="#000000" stroke-miterlimit="10" points="216.649,93.58 95.162,0.572 0.996,39.144 122.484,132.152 
	"/>
<circle fill="#36A9E1" stroke="#36A9E1" stroke-miterlimit="10" cx="53.356" cy="67.828" r="1.466"/>
<circle fill="#F39200" stroke="#F39200" stroke-miterlimit="10" cx="110.288" cy="21.014" r="1.466"/>
<circle fill="#2FAC66" stroke="#2FAC66" stroke-miterlimit="10" cx="169.746" cy="87.425" r="1.466"/>
<path fill="none" stroke="#B2B2B2" stroke-miterlimit="10" d="M84.688,156.055c-3.493-9.04-13.73-13.491-22.887-9.953"/>
<path fill="none" stroke="#B2B2B2" stroke-miterlimit="10" d="M93.368,102.238c-9.141-13.028-27.217-16.075-40.412-6.815"/>
<g>
	<g>
		<line fill="none" stroke="#F39200" stroke-width="1.5" stroke-miterlimit="10" x1="67.59" y1="164.407" x2="108.35" y2="27.521"/>
		<g>
			<path fill="#F39200" d="M110.288,21.014c0.224,3.4,1.032,7.776,2.384,10.743l-4.576-3.382l-5.679,0.328
				C105.171,26.96,108.241,23.737,110.288,21.014z"/>
		</g>
	</g>
</g>
<g>
	<g>
		
			<line fill="none" stroke="#2FAC66" stroke-width="1.5" stroke-miterlimit="10" x1="67.59" y1="164.407" x2="163.479" y2="92.494"/>
		<g>
			<path fill="#2FAC66" d="M168.91,88.421c-1.845,2.865-3.802,6.861-4.482,10.05l-1.662-5.441l-4.758-3.118
				C161.259,90.15,165.644,89.391,168.91,88.421z"/>
		</g>
	</g>
</g>
<g>
	<g>
		<line fill="none" stroke="#36A9E1" stroke-width="1.5" stroke-miterlimit="10" x1="67.59" y1="164.407" x2="54.346" y2="74.545"/>
		<g>
			<path fill="#36A9E1" d="M53.355,67.828c1.639,2.988,4.218,6.614,6.695,8.732l-5.575-1.134l-5.01,2.694
				C51.227,75.378,52.649,71.161,53.355,67.828z"/>
		</g>
	</g>
</g>
<circle fill="#C6C6C6" stroke="#C6C6C6" stroke-miterlimit="10" cx="68.155" cy="164.035" r="3.717"/>
<path fill="none" stroke="#B2B2B2" stroke-miterlimit="10" d="M106.595,145.3c-1.515-16.367-16.159-28.369-32.736-26.836"/>
<text transform="matrix(1 0 0 1 93.0449 121.3936)" font-family="'Symbol'" font-size="10">q</text>
<text transform="matrix(0.583 0 0 0.583 98.2549 124.7236)" font-family="'ArialMT'" font-size="10">23</text>
<text transform="matrix(1 0 0 1 70.4888 85.959)" font-family="'Symbol'" font-size="10">q</text>
<text transform="matrix(0.583 0 0 0.583 75.6987 89.2891)" font-family="'ArialMT'" font-size="10">12</text>
<text transform="matrix(1 0 0 1 77.1777 142.8867)" font-family="'Symbol'" font-size="10">q</text>
<text transform="matrix(0.583 0 0 0.583 82.3877 146.2168)" font-family="'ArialMT'" font-size="10">13</text>
<text transform="matrix(0.5264 -0.2506 0.2506 0.5264 42.8682 41.2188)" opacity="0.25"><tspan x="0" y="0" font-family="'Arial-BoldMT'" font-size="25">Ba </tspan><tspan x="38.902" y="0" font-family="'ArialMT'" font-size="25">= </tspan><tspan x="60.448" y="0" font-family="'Arial-BoldMT'" font-size="25">0</tspan></text>
<text transform="matrix(0.9748 0 0 1 57.833 69.2935)" fill="#009FE3" font-family="'Arial-BoldMT'" font-size="12">a</text>
<text transform="matrix(0.5683 0 0 0.583 64.3379 73.2896)" fill="#009FE3" font-family="'ArialMT'" font-size="12">1</text>
<text transform="matrix(0.9748 0 0 1 113.7861 29.0605)" fill="#F39200" font-family="'Arial-BoldMT'" font-size="12">a</text>
<text transform="matrix(0.5683 0 0 0.583 120.291 33.0566)" fill="#F39200" font-family="'ArialMT'" font-size="12">2</text>
<text transform="matrix(0.9748 0 0 1 173.7495 90.71)" fill="#2FAC66" font-family="'Arial-BoldMT'" font-size="12">a</text>
<text transform="matrix(0.5683 0 0 0.583 180.2544 94.7061)" fill="#2FAC66" font-family="'ArialMT'" font-size="12">3</text>
</svg>
