<?xml version="1.0" encoding="utf-8"?>
<!-- Generator: Adobe Illustrator 16.0.0, SVG Export Plug-In . SVG Version: 6.00 Build 0)  -->
<!DOCTYPE svg PUBLIC "-//W3C//DTD SVG 1.1//EN" "http://www.w3.org/Graphics/SVG/1.1/DTD/svg11.dtd">
<svg version="1.1" id="Layer_1" xmlns="http://www.w3.org/2000/svg" xmlns:xlink="http://www.w3.org/1999/xlink" x="0px" y="0px"
	 width="141.664px" height="143.738px" viewBox="0 0 141.664 143.738" enable-background="new 0 0 141.664 143.738"
	 xml:space="preserve">
<g>
	<path fill="none" stroke="#3AAA35" stroke-width="0.5" stroke-miterlimit="10" d="M68.687,23.815
		c0.017,2.718-0.755,5.237,2.5,6.868c3.085,1.545,6.593-0.533,7.495-3.727"/>
	<path fill="none" stroke="#3AAA35" stroke-miterlimit="10" d="M72.906,25.517c0.768,11.344-10.025,18.561-17.355,25.869
		c-3.192,3.183-10.888,13.105-6.064,17.828"/>
	<path fill="none" stroke="#3AAA35" stroke-width="0.5" stroke-miterlimit="10" d="M77,24.565c0.097,3.217-2.067,5.398-4.95,6.658
		c-2.593,1.134-7.105-0.398-5.141-3.802"/>
	<path fill="none" stroke="#3AAA35" stroke-miterlimit="10" d="M71.288,27.04c2.58,4.33,7.577,6.895,9.948,11.411
		c2.441,4.653,1.656,10.126-0.238,14.811c-1.369,3.389-3.031,6.134-5.092,9.086c-1.082,1.55-2.458,3.878-2.143,5.437"/>
	<path fill="none" stroke="#3AAA35" stroke-width="0.5" stroke-miterlimit="10" d="M76.238,21.899
		c3.275,1.043,4.027,3.414,3.47,6.626c-0.554,3.191-4.999,5.558-7.849,3.274"/>
	<path fill="none" stroke="#3AAA35" stroke-miterlimit="10" d="M74.145,26.469c4.623,2.064,9.294,3.866,12.143,8.129
		c2.799,4.189,2.707,9.649,2.708,14.434c0.001,3.04-0.591,6.706,0.529,9.607c0.916,2.371,2.547,2.744,4.993,3.631
		c1.652,0.6,3.471,1.11,4.001,2.845c0.267,0.87-0.165,1.977,0.187,2.714"/>
	<g>
		<path fill="none" stroke="#F39200" stroke-miterlimit="10" d="M53.581,80.552c-2.476,4.387-3.214,9.51-0.38,14.463
			c1.886,3.295,3.244,5.086,3.237,9.633c-0.003,2.08-0.225,4.135-0.899,5.961c-0.294,0.795-1.731,3.595-1.576,2.553"/>
		<path fill="none" stroke="#F39200" stroke-miterlimit="10" d="M103.085,80.269c-3.966,3.976-3.175,10.375,0.042,14.443
			c2.276,2.877,3.426,5.627,3.193,10.141c-0.223,4.347-1.525,6.072-3.045,9.477"/>
		<path fill="none" stroke="#F39200" stroke-miterlimit="10" d="M77.854,79.942c-3.966,3.976-3.175,10.376,0.043,14.442
			c2.275,2.877,3.425,5.627,3.193,10.142c-0.225,4.347-1.526,6.073-3.047,9.478"/>
	</g>
	<g>
		<path fill="none" stroke="#009FE3" stroke-miterlimit="10" d="M45.013,79.971c-1.36,3.595-2.366,5.083-0.2,9.149
			c1.983,3.725,2.616,7.544,0.791,11.819c0.17,0.048,0.356-0.056,0.552-0.099"/>
		<path fill="none" stroke="#009FE3" stroke-miterlimit="10" d="M69.693,79.971c-1.361,3.595-2.366,5.083-0.2,9.149
			c1.983,3.725,2.616,7.544,0.791,11.819c0.17,0.048,0.356-0.056,0.552-0.099"/>
		<path fill="none" stroke="#009FE3" stroke-miterlimit="10" d="M95.115,79.971c-1.36,3.595-2.366,5.083-0.2,9.149
			c1.983,3.725,2.616,7.544,0.791,11.819c0.171,0.048,0.356-0.056,0.552-0.099"/>
	</g>
	<polygon fill="#95C11F" stroke="#3AAA35" stroke-miterlimit="10" points="42.515,80.138 49.51,68.02 56.506,80.138 	"/>
	<polygon fill="#95C11F" stroke="#3AAA35" stroke-miterlimit="10" points="66.655,80.138 73.65,68.02 80.646,80.138 	"/>
	<polygon fill="#95C11F" stroke="#3AAA35" stroke-miterlimit="10" points="91.992,80.138 98.987,68.02 105.982,80.138 	"/>
	<g>
		<g>
			<line fill="none" stroke="#3AAA35" stroke-miterlimit="10" x1="73.65" y1="5.906" x2="73.65" y2="23.451"/>
			<g>
				<path fill="#3AAA35" d="M73.65,26.469c-0.527-1.42-1.426-3.182-2.378-4.274l2.378,0.86l2.377-0.86
					C75.076,23.287,74.177,25.049,73.65,26.469z"/>
			</g>
		</g>
	</g>
	<text transform="matrix(0.9748 0 0 1 76.6523 11.7607)" fill="#3AAA35" font-family="'Arial-BoldMT'" font-size="13.7088">y</text>
	<text transform="matrix(0.5683 0 0 0.583 84.084 16.3257)" fill="#3AAA35" font-family="'ArialMT'" font-size="13.7088">i</text>
	<g opacity="0.6">
		<circle fill="#95C11F" cx="73.65" cy="27.51" r="8.996"/>
		<circle fill="none" stroke="#3AAA35" stroke-miterlimit="10" stroke-dasharray="2.0183,2.0183" cx="73.65" cy="27.51" r="8.996"/>
	</g>
	<text transform="matrix(0.9748 0 0 1 52.5205 70.6416)" fill="#3AAA35" font-family="'Arial-BoldMT'" font-size="13.7088">λ</text>
	<text transform="matrix(0.5683 0 0 0.583 59.9521 75.2065)" fill="#3AAA35" font-family="'ArialMT'" font-size="13.7088">i1</text>
	<text transform="matrix(0.9748 0 0 1 77.0039 70.6416)" fill="#3AAA35" font-family="'Arial-BoldMT'" font-size="13.7088">λ</text>
	<text transform="matrix(0.5683 0 0 0.583 84.4355 75.2065)" fill="#3AAA35" font-family="'ArialMT'" font-size="13.7088">i2</text>
	<text transform="matrix(0.9748 0 0 1 102.708 70.6416)" fill="#3AAA35" font-family="'Arial-BoldMT'" font-size="13.7088">λ</text>
	<text transform="matrix(0.5683 0 0 0.583 110.1396 75.2065)" fill="#3AAA35" font-family="'ArialMT'" font-size="13.7088">i3</text>
	<g>
		<circle fill="#F39200" stroke="#F39200" stroke-miterlimit="10" cx="125.451" cy="114.558" r="3.047"/>
		<text transform="matrix(0.9748 0 0 1 130.3369 118.7471)" fill="#F39200" font-family="'Arial-BoldMT'" font-size="13.7088">x</text>
		<text transform="matrix(0.5683 0 0 0.583 137.7686 123.312)" fill="#F39200" font-family="'ArialMT'" font-size="13.7088">k</text>
		<g>
			<line fill="#F39200" stroke="#F39200" stroke-miterlimit="10" x1="122.404" y1="114.338" x2="30.899" y2="114.338"/>
			<g>
				<line fill="#F39200" x1="50.243" y1="114.338" x2="17.952" y2="114.338"/>
				<g>
					<line fill="none" stroke="#F39200" stroke-miterlimit="10" x1="50.243" y1="114.338" x2="49.243" y2="114.338"/>
					
						<line fill="none" stroke="#F39200" stroke-miterlimit="10" stroke-dasharray="2.0194,2.0194" x1="47.224" y1="114.338" x2="19.962" y2="114.338"/>
					<line fill="none" stroke="#F39200" stroke-miterlimit="10" x1="18.952" y1="114.338" x2="17.952" y2="114.338"/>
				</g>
			</g>
		</g>
	</g>
	<g>
		<text transform="matrix(0.9748 0 0 1 0 104.0864)" fill="#009FE3" font-family="'Arial-BoldMT'" font-size="13.7088">x</text>
		<text transform="matrix(0.5683 0 0 0.583 7.4316 108.6514)" fill="#009FE3" font-family="'ArialMT'" font-size="13.7088">j</text>
		<g>
			<g>
				<ellipse fill="#009FE3" stroke="#009FE3" stroke-miterlimit="10" cx="13.974" cy="100.945" rx="2.693" ry="3.047"/>
				<line fill="#009FE3" stroke="#009FE3" stroke-miterlimit="10" x1="16.667" y1="100.945" x2="109.889" y2="100.945"/>
				<ellipse fill="#009FE3" stroke="#009FE3" stroke-miterlimit="10" cx="45.119" cy="100.945" rx="0.932" ry="1.055"/>
				<ellipse fill="#009FE3" stroke="#009FE3" stroke-miterlimit="10" cx="70.462" cy="100.945" rx="0.932" ry="1.055"/>
				<ellipse fill="#009FE3" stroke="#009FE3" stroke-miterlimit="10" cx="95.856" cy="100.945" rx="0.933" ry="1.055"/>
			</g>
			<g>
				<line fill="#009FE3" x1="103.101" y1="100.945" x2="122.312" y2="100.945"/>
				<g>
					<line fill="none" stroke="#009FE3" stroke-miterlimit="10" x1="103.101" y1="100.945" x2="104.101" y2="100.945"/>
					
						<line fill="none" stroke="#009FE3" stroke-miterlimit="10" stroke-dasharray="1.9123,1.9123" x1="106.013" y1="100.945" x2="120.355" y2="100.945"/>
					<line fill="none" stroke="#009FE3" stroke-miterlimit="10" x1="121.312" y1="100.945" x2="122.312" y2="100.945"/>
				</g>
			</g>
		</g>
	</g>
	<g>
		<text transform="matrix(0.9748 0 0 1 34.8979 95.6133)" fill="#009FE3" font-family="'Arial-BoldMT'" font-size="8.6344">A</text>
		<text transform="matrix(0.5683 0 0 0.583 40.9761 98.4883)" fill="#009FE3" font-family="'ArialMT'" font-size="8.6344">ij</text>
		<text transform="matrix(0.9748 0 0 1 40.23 90.9365)" fill="#009FE3" font-family="'ArialMT'" font-size="5.0367">1</text>
	</g>
	<g>
		<text transform="matrix(0.9748 0 0 1 59.7036 95.6133)" fill="#009FE3" font-family="'Arial-BoldMT'" font-size="8.6344">A</text>
		<text transform="matrix(0.5683 0 0 0.583 65.7817 98.4883)" fill="#009FE3" font-family="'ArialMT'" font-size="8.6344">ij</text>
		<text transform="matrix(0.9748 0 0 1 65.0356 90.9365)" fill="#009FE3" font-family="'ArialMT'" font-size="5.0367">2</text>
	</g>
	<g>
		<text transform="matrix(0.9748 0 0 1 85.2832 95.6133)" fill="#009FE3" font-family="'Arial-BoldMT'" font-size="8.6344">A</text>
		<text transform="matrix(0.5683 0 0 0.583 91.3613 98.4883)" fill="#009FE3" font-family="'ArialMT'" font-size="8.6344">ij</text>
		<text transform="matrix(0.9748 0 0 1 90.6152 90.9365)" fill="#009FE3" font-family="'ArialMT'" font-size="5.0367">3</text>
	</g>
	<g>
		<text transform="matrix(0.9748 0 0 1 41.145 110.6074)" fill="#F39200" font-family="'Arial-BoldMT'" font-size="8.6344">A</text>
		<text transform="matrix(0.5683 0 0 0.583 47.2231 113.4824)" fill="#F39200" font-family="'ArialMT'" font-size="8.6344">ik</text>
		<text transform="matrix(0.9748 0 0 1 46.4771 105.9307)" fill="#F39200" font-family="'ArialMT'" font-size="5.0367">1</text>
	</g>
	<g>
		<text transform="matrix(0.9748 0 0 1 65.9502 110.6074)" fill="#F39200" font-family="'Arial-BoldMT'" font-size="8.6344">A</text>
		<text transform="matrix(0.5683 0 0 0.583 72.0283 113.4824)" fill="#F39200" font-family="'ArialMT'" font-size="8.6344">ik</text>
		<text transform="matrix(0.9748 0 0 1 71.2822 105.9307)" fill="#F39200" font-family="'ArialMT'" font-size="5.0367">2</text>
	</g>
	<g>
		
			<text transform="matrix(0.9748 -6.885991e-04 7.064342e-04 1 91.5332 110.6128)" fill="#F39200" font-family="'Arial-BoldMT'" font-size="8.6344">A</text>
		
			<text transform="matrix(0.5683 -4.014533e-04 4.118511e-04 0.583 97.6133 113.4834)" fill="#F39200" font-family="'ArialMT'" font-size="8.6344">ik</text>
		
			<text transform="matrix(0.9748 -6.885991e-04 7.064342e-04 1 96.8618 105.9321)" fill="#F39200" font-family="'ArialMT'" font-size="5.0367">3</text>
	</g>
	<ellipse fill="#F39200" stroke="#F39200" stroke-miterlimit="10" cx="53.907" cy="114.33" rx="0.932" ry="1.055"/>
	<ellipse fill="#F39200" stroke="#F39200" stroke-miterlimit="10" cx="78.146" cy="114.003" rx="0.933" ry="1.055"/>
	<ellipse fill="#F39200" stroke="#F39200" stroke-miterlimit="10" cx="103.276" cy="114.33" rx="0.932" ry="1.055"/>
	<g>
		<text transform="matrix(1.0248 0 0 1 48.4526 133.1968)" fill="#F39200" font-family="'ArialMT'" font-size="8.9027">A</text>
		<text transform="matrix(1.0248 0 0 1 55.2954 134.5327)" fill="#F39200" font-family="'CMMI7'" font-size="6.2318">ik</text>
		<text transform="matrix(1.0248 0 0 1 59.9136 133.1968)" fill="#9D9D9C" font-family="'CMR10'" font-size="8.9027">=</text>
		<text transform="matrix(1.0248 0 0 1 67.0229 127.1733)" fill="#9D9D9C" font-family="'CMR10'" font-size="8.9027">1</text>
		<line fill="#9D9D9C" stroke="#B2B2B2" stroke-miterlimit="10" x1="67.022" y1="130.972" x2="71.583" y2="130.972"/>
		<text transform="matrix(1.0248 0 0 1 67.0229 139.3022)" fill="#9D9D9C" font-family="'CMR10'" font-size="8.9027">3</text>
		<text transform="matrix(1.0248 0 0 1 77.5249 123.479)" fill="#9D9D9C" font-family="'CMR7'" font-size="6.2318">3</text>
		<path fill="#9D9D9C" d="M73.519,137.206c-0.164,0-0.246,0-0.246-0.099c0-0.008,0-0.053,0.092-0.16l4.727-5.404l-4.827-6.446
			c0-0.099,0-0.267,0.009-0.294c0.027-0.053,0.037-0.062,0.246-0.062h10.786l1.104,2.502h-0.228
			c-0.312-0.721-0.932-1.122-1.159-1.264c-0.722-0.445-1.515-0.597-2.008-0.668c-0.082-0.018-0.913-0.143-2.136-0.143h-5
			l4.252,5.672c0.064,0.089,0.064,0.115,0.064,0.133c0,0.045-0.019,0.072-0.082,0.143l-4.645,5.316h5.502
			c1.752,0,2.646-0.232,2.838-0.276c1.05-0.267,2.017-0.872,2.373-1.798h0.228l-1.104,2.849H73.519z"/>
		<text transform="matrix(1.0248 0 0 1 74.4487 142.1802)" fill="#9D9D9C" font-family="'CMMI7'" font-size="6.2318">s</text>
		<text transform="matrix(1.0248 0 0 1 77.8921 142.1802)" fill="#9D9D9C" font-family="'CMR7'" font-size="6.2318">=1</text>
		<text transform="matrix(1.0248 0 0 1 87.4517 133.1968)" fill="#F39200" font-family="'ArialMT'" font-size="8.9027">A</text>
		<text transform="matrix(1.0248 0 0 1 94.2944 129.521)" fill="#F39200" font-family="'CMMI7'" font-size="6.2318">s</text>
		<text transform="matrix(1.0248 0 0 1 94.2944 135.397)" fill="#F39200" font-family="'CMMI7'" font-size="6.2318">ik</text>
	</g>
</g>
</svg>
