<?xml version="1.0" encoding="utf-8"?>
<!-- Generator: Adobe Illustrator 16.0.0, SVG Export Plug-In . SVG Version: 6.00 Build 0)  -->
<!DOCTYPE svg PUBLIC "-//W3C//DTD SVG 1.1//EN" "http://www.w3.org/Graphics/SVG/1.1/DTD/svg11.dtd">
<svg version="1.1" id="Layer_1" xmlns="http://www.w3.org/2000/svg" xmlns:xlink="http://www.w3.org/1999/xlink" x="0px" y="0px"
	 width="141.664px" height="98.077px" viewBox="0 0 141.664 98.077" enable-background="new 0 0 141.664 98.077"
	 xml:space="preserve">
<path fill="none" stroke="#3AAA35" stroke-width="0.5" stroke-miterlimit="10" d="M63.694,17.837
	c0.008,1.344-0.374,2.59,1.236,3.397c1.526,0.764,3.26-0.264,3.707-1.843"/>
<path fill="none" stroke="#3AAA35" stroke-miterlimit="10" d="M65.781,18.678c0.38,5.611-4.958,9.18-8.584,12.794
	c-1.579,1.574-5.385,6.482-2.999,8.818"/>
<path fill="none" stroke="#3AAA35" stroke-width="0.5" stroke-miterlimit="10" d="M67.806,18.208
	c0.047,1.591-1.023,2.67-2.449,3.293c-1.282,0.561-3.514-0.197-2.542-1.88"/>
<path fill="none" stroke="#3AAA35" stroke-miterlimit="10" d="M64.981,19.432c1.276,2.142,3.748,3.41,4.92,5.644
	c1.208,2.301,0.819,5.008-0.117,7.325c-0.678,1.676-1.5,3.034-2.519,4.494c-0.536,0.767-1.216,1.918-1.06,2.689"/>
<path fill="none" stroke="#3AAA35" stroke-width="0.5" stroke-miterlimit="10" d="M67.429,16.889
	c1.62,0.516,1.992,1.688,1.716,3.277c-0.274,1.579-2.473,2.749-3.882,1.619"/>
<path fill="none" stroke="#3AAA35" stroke-miterlimit="10" d="M66.394,19.149c2.287,1.021,4.597,1.912,6.006,4.02
	c1.384,2.072,1.339,4.773,1.339,7.139c0,1.503-0.292,3.316,0.262,4.752c0.453,1.172,1.26,1.357,2.469,1.796
	c0.818,0.296,1.717,0.549,1.979,1.407c0.132,0.43-0.082,0.978,0.093,1.342"/>
<g>
	<g>
		<line fill="none" stroke="#3AAA35" stroke-miterlimit="10" x1="66.149" y1="8.979" x2="66.149" y2="16.132"/>
		<g>
			<path fill="#3AAA35" d="M66.149,19.149c-0.527-1.42-1.426-3.182-2.378-4.273l2.378,0.86l2.377-0.86
				C67.575,15.968,66.676,17.729,66.149,19.149z"/>
		</g>
	</g>
</g>
<text transform="matrix(0.9748 0 0 1 67.6338 11.7534)" fill="#3AAA35" font-family="'Arial-BoldMT'" font-size="13.7">y</text>
<text transform="matrix(0.5683 0 0 0.583 75.0605 16.3154)" fill="#3AAA35" font-family="'ArialMT'" font-size="13.7">b</text>
<g opacity="0.6">
	<circle fill="#95C11F" cx="66.149" cy="19.664" r="4.449"/>
	<circle fill="none" stroke="#3AAA35" stroke-miterlimit="10" stroke-dasharray="1.994,1.994" cx="66.149" cy="19.664" r="4.449"/>
</g>
<text transform="matrix(0.9748 0 0 1 30.2266 11.7534)" fill="#BBB1D8" font-family="'Arial-BoldMT'" font-size="13.7">y</text>
<text transform="matrix(0.5683 0 0 0.583 37.6533 16.3154)" fill="#B2A6D2" font-family="'ArialMT'" font-size="13.7">a</text>
<g>
	<circle fill="#F39200" stroke="#F39200" stroke-miterlimit="10" cx="125.451" cy="73.783" r="3.046"/>
	<text transform="matrix(0.9748 0 0 1 130.3369 77.9717)" fill="#F39200" font-family="'Arial-BoldMT'" font-size="13.7088">x</text>
	<text transform="matrix(0.5683 0 0 0.583 137.7686 82.5366)" fill="#F39200" font-family="'ArialMT'" font-size="13.7088">k</text>
	<g>
		<line fill="#F39200" stroke="#F39200" stroke-miterlimit="10" x1="122.405" y1="73.564" x2="30.899" y2="73.564"/>
		<g>
			<line fill="#F39200" x1="50.243" y1="73.564" x2="17.952" y2="73.564"/>
			<g>
				<line fill="none" stroke="#F39200" stroke-miterlimit="10" x1="50.243" y1="73.564" x2="49.243" y2="73.564"/>
				
					<line fill="none" stroke="#F39200" stroke-miterlimit="10" stroke-dasharray="2.0194,2.0194" x1="47.224" y1="73.564" x2="19.962" y2="73.564"/>
				<line fill="none" stroke="#F39200" stroke-miterlimit="10" x1="18.952" y1="73.564" x2="17.952" y2="73.564"/>
			</g>
		</g>
	</g>
</g>
<g>
	<text transform="matrix(0.9748 0 0 1 0 63.311)" fill="#009FE3" font-family="'Arial-BoldMT'" font-size="13.7088">x</text>
	<text transform="matrix(0.5683 0 0 0.583 7.4316 67.876)" fill="#009FE3" font-family="'ArialMT'" font-size="13.7088">j</text>
	<g>
		<g>
			<ellipse fill="#009FE3" stroke="#009FE3" stroke-miterlimit="10" cx="13.974" cy="60.169" rx="2.693" ry="3.047"/>
			<line fill="#009FE3" stroke="#009FE3" stroke-miterlimit="10" x1="16.667" y1="60.169" x2="109.888" y2="60.169"/>
		</g>
		<g>
			<line fill="#009FE3" x1="103.101" y1="60.169" x2="122.312" y2="60.169"/>
			<g>
				<line fill="none" stroke="#009FE3" stroke-miterlimit="10" x1="103.101" y1="60.169" x2="104.101" y2="60.169"/>
				
					<line fill="none" stroke="#009FE3" stroke-miterlimit="10" stroke-dasharray="1.9123,1.9123" x1="106.013" y1="60.169" x2="120.355" y2="60.169"/>
				<line fill="none" stroke="#009FE3" stroke-miterlimit="10" x1="121.312" y1="60.169" x2="122.312" y2="60.169"/>
			</g>
		</g>
	</g>
</g>
<path fill="none" stroke="#A48A7B" stroke-width="0.5" stroke-miterlimit="10" d="M101.457,17.716
	c0.008,1.344-0.374,2.59,1.236,3.397c1.526,0.764,3.26-0.264,3.707-1.843"/>
<path fill="none" stroke="#A48A7B" stroke-miterlimit="10" d="M103.544,18.557c0.38,5.611-4.958,9.18-8.584,12.794
	c-1.579,1.574-5.385,6.482-2.999,8.818"/>
<path fill="none" stroke="#A48A7B" stroke-width="0.5" stroke-miterlimit="10" d="M105.569,18.086
	c0.047,1.591-1.023,2.67-2.449,3.293c-1.282,0.561-3.514-0.197-2.542-1.88"/>
<path fill="none" stroke="#A48A7B" stroke-miterlimit="10" d="M102.744,19.311c1.276,2.142,3.748,3.41,4.92,5.644
	c1.208,2.301,0.819,5.008-0.117,7.325c-0.678,1.676-1.5,3.034-2.519,4.494c-0.536,0.767-1.216,1.918-1.06,2.689"/>
<path fill="none" stroke="#A48A7B" stroke-width="0.5" stroke-miterlimit="10" d="M105.192,16.768
	c1.62,0.516,1.992,1.688,1.716,3.277c-0.274,1.579-2.473,2.749-3.882,1.619"/>
<g>
	<g>
		<line fill="none" stroke="#A48A7B" stroke-miterlimit="10" x1="103.912" y1="8.858" x2="103.912" y2="16.011"/>
		<g>
			<path fill="#A48A7B" d="M103.912,19.028c-0.527-1.42-1.426-3.182-2.378-4.273l2.378,0.86l2.377-0.86
				C105.337,15.847,104.438,17.608,103.912,19.028z"/>
		</g>
	</g>
</g>
<text transform="matrix(0.9748 0 0 1 105.3965 11.7534)" fill="#A48A7B" font-family="'Arial-BoldMT'" font-size="13.7">y</text>
<text transform="matrix(0.5683 0 0 0.583 112.8232 16.3154)" fill="#A48A7B" font-family="'ArialMT'" font-size="13.7">c</text>
<g opacity="0.6">
	<circle fill="#A48A7B" cx="103.563" cy="19.311" r="4.449"/>
	<circle fill="none" stroke="#7D4E24" stroke-miterlimit="10" stroke-dasharray="1.994,1.994" cx="103.563" cy="19.311" r="4.449"/>
</g>
<g>
	<path fill="none" stroke="#009FE3" stroke-width="0.75" stroke-miterlimit="10" d="M26.316,46.05
		c-1.36,2.427-2.366,3.432-0.2,6.178c1.983,2.516,2.616,5.094,0.791,7.981c0.17,0.032,0.356-0.038,0.552-0.067"/>
	<path fill="none" stroke="#009FE3" stroke-width="0.75" stroke-miterlimit="10" d="M37.933,46.05
		c-1.36,2.427-2.366,3.432-0.2,6.178c1.983,2.516,2.616,5.094,0.791,7.981c0.17,0.032,0.356-0.038,0.552-0.067"/>
	<path fill="none" stroke="#009FE3" stroke-width="0.75" stroke-miterlimit="10" d="M51.703,46.05
		c-1.36,2.427-2.366,3.432-0.2,6.178c1.983,2.516,2.616,5.094,0.791,7.981c0.17,0.032,0.356-0.038,0.552-0.067"/>
	<path fill="none" stroke="#009FE3" stroke-width="0.75" stroke-miterlimit="10" d="M63.171,46.05
		c-1.36,2.427-2.366,3.432-0.2,6.178c1.983,2.516,2.616,5.094,0.791,7.981c0.17,0.032,0.356-0.038,0.552-0.067"/>
	<path fill="none" stroke="#009FE3" stroke-width="0.75" stroke-miterlimit="10" d="M76.776,45.572
		c-1.36,2.427-2.366,3.431-0.2,6.177c1.983,2.516,2.616,5.096,0.791,7.982c0.17,0.032,0.356-0.038,0.552-0.066"/>
	<path fill="none" stroke="#009FE3" stroke-width="0.75" stroke-miterlimit="10" d="M89.972,45.572
		c-1.36,2.427-2.366,3.431-0.2,6.177c1.983,2.516,2.616,5.096,0.791,7.982c0.17,0.032,0.356-0.038,0.552-0.066"/>
	<path fill="none" stroke="#009FE3" stroke-width="0.75" stroke-miterlimit="10" d="M101.317,46.05
		c-1.36,2.427-2.366,3.432-0.2,6.178c1.983,2.516,2.616,5.094,0.791,7.981c0.17,0.032,0.356-0.038,0.552-0.067"/>
</g>
<g>
	<path fill="none" stroke="#F39200" stroke-width="0.75" stroke-miterlimit="10" d="M30.282,46.24
		c-1.36,4.605-2.366,6.511-0.2,11.721c1.983,4.773,2.616,9.666,0.791,15.145c0.17,0.061,0.356-0.072,0.552-0.127"/>
	<path fill="none" stroke="#F39200" stroke-width="0.75" stroke-miterlimit="10" d="M43.899,46.24
		c-1.36,4.605-2.366,6.511-0.2,11.721c1.983,4.773,2.616,9.666,0.791,15.145c0.17,0.061,0.356-0.072,0.552-0.127"/>
	<path fill="none" stroke="#F39200" stroke-width="0.75" stroke-miterlimit="10" d="M55.668,46.24
		c-1.36,4.605-2.366,6.511-0.2,11.721c1.983,4.773,2.616,9.666,0.791,15.145c0.17,0.061,0.356-0.072,0.552-0.127"/>
	<path fill="none" stroke="#F39200" stroke-width="0.75" stroke-miterlimit="10" d="M67.137,46.24
		c-1.36,4.605-2.366,6.511-0.2,11.721c1.983,4.773,2.616,9.666,0.791,15.145c0.17,0.061,0.356-0.072,0.552-0.127"/>
	<path fill="none" stroke="#F39200" stroke-width="0.75" stroke-miterlimit="10" d="M80.742,45.333
		c-1.36,4.777-2.366,6.754-0.2,12.16c1.983,4.951,2.616,10.028,0.791,15.713c0.17,0.062,0.356-0.076,0.552-0.133"/>
	<path fill="none" stroke="#F39200" stroke-width="0.75" stroke-miterlimit="10" d="M93.938,45.333
		c-1.36,4.793-2.366,6.775-0.2,12.197c1.983,4.967,2.616,10.059,0.791,15.758c0.17,0.064,0.356-0.074,0.552-0.131"/>
	<path fill="none" stroke="#F39200" stroke-width="0.75" stroke-miterlimit="10" d="M105.283,46.24
		c-1.36,4.605-2.366,6.511-0.2,11.721c1.983,4.773,2.616,9.666,0.791,15.145c0.17,0.061,0.356-0.072,0.552-0.127"/>
</g>
<polygon fill="#95C11F" stroke="#3AAA35" stroke-miterlimit="10" points="50.75,45.693 54.21,39.7 57.67,45.693 "/>
<polygon fill="#95C11F" stroke="#3AAA35" stroke-miterlimit="10" points="62.689,45.693 66.149,39.7 69.609,45.693 "/>
<polygon fill="#95C11F" stroke="#3AAA35" stroke-miterlimit="10" points="75.221,45.693 78.681,39.7 82.141,45.693 "/>
<polygon fill="#CBBBA0" stroke="#A48A7B" stroke-miterlimit="10" points="88.513,45.572 91.973,39.579 95.433,45.572 "/>
<polygon fill="#CBBBA0" stroke="#A48A7B" stroke-miterlimit="10" points="100.452,45.572 103.912,39.579 107.372,45.572 "/>
<g>
	<path fill="none" stroke="#9B9FC2" stroke-width="0.5" stroke-miterlimit="10" d="M25.457,17.837
		c0.008,1.344-0.374,2.59,1.236,3.397c1.526,0.764,3.26-0.264,3.707-1.843"/>
	<path fill="none" stroke="#9B9FC2" stroke-width="0.5" stroke-miterlimit="10" d="M29.569,18.208
		c0.047,1.591-1.023,2.67-2.449,3.293c-1.282,0.561-3.514-0.197-2.542-1.88"/>
	<path fill="none" stroke="#9B9FC2" stroke-miterlimit="10" d="M26.744,19.432c1.276,2.142,3.748,3.41,4.92,5.644
		c1.208,2.301,0.819,5.008-0.117,7.325c-0.678,1.676-1.5,3.034-2.519,4.494c-0.536,0.767-1.216,1.918-1.06,2.689"/>
	<path fill="none" stroke="#9B9FC2" stroke-width="0.5" stroke-miterlimit="10" d="M29.192,16.889
		c1.62,0.516,1.992,1.688,1.716,3.277c-0.274,1.579-2.473,2.749-3.882,1.619"/>
	<path fill="none" stroke="#9B9FC2" stroke-miterlimit="10" d="M28.156,19.149c2.287,1.021,4.597,1.912,6.006,4.02
		c1.384,2.072,1.339,4.773,1.339,7.139c0,1.503-0.292,3.316,0.262,4.752c0.453,1.172,1.26,1.357,2.469,1.796
		c0.818,0.296,1.717,0.549,1.979,1.407c0.132,0.43-0.082,0.978,0.093,1.342"/>
	<polygon fill="#C4BDDF" stroke="#9B9FC2" stroke-miterlimit="10" points="24.452,45.693 27.912,39.7 31.372,45.693 	"/>
	<polygon fill="#C4BDDF" stroke="#9B9FC2" stroke-miterlimit="10" points="36.983,45.693 40.443,39.7 43.903,45.693 	"/>
	<g>
		<g>
			<line fill="none" stroke="#9B9FC2" stroke-miterlimit="10" x1="27.912" y1="8.979" x2="27.912" y2="16.132"/>
			<g>
				<path fill="#9B9FC2" d="M27.912,19.149c-0.527-1.42-1.426-3.182-2.378-4.273l2.378,0.86l2.377-0.86
					C29.337,15.968,28.438,17.729,27.912,19.149z"/>
			</g>
		</g>
	</g>
	<g opacity="0.6">
		<circle fill="#C4BDDF" cx="27.912" cy="19.149" r="4.449"/>
		<circle fill="none" stroke="#9B9FC2" stroke-miterlimit="10" stroke-dasharray="1.994,1.994" cx="27.912" cy="19.149" r="4.449"/>
	</g>
</g>
<g>
	<text transform="matrix(0.9748 0 0 1 17.9521 52.7329)" fill="#009FE3" font-family="'Arial-BoldMT'" font-size="6.1656">A</text>
	<text transform="matrix(0.5683 0 0 0.583 22.2925 54.7861)" fill="#009FE3" font-family="'ArialMT'" font-size="6.1656">aj</text>
	<text transform="matrix(0.9748 0 0 1 21.7588 49.3931)" fill="#009FE3" font-family="'ArialMT'" font-size="3.5966">1</text>
</g>
<g>
	<text transform="matrix(0.9748 0 0 1 93.0444 52.7432)" fill="#009FE3" font-family="'Arial-BoldMT'" font-size="6.2281">A</text>
	<text transform="matrix(0.5683 0 0 0.583 97.4287 54.8169)" fill="#009FE3" font-family="'ArialMT'" font-size="6.2281">cj</text>
	<text transform="matrix(0.9748 0 0 1 96.8892 49.3701)" fill="#009FE3" font-family="'ArialMT'" font-size="3.6331">2</text>
</g>
<g>
	<text transform="matrix(0.9748 0 0 1 107.5918 69.8379)" fill="#F9B233" font-family="'Arial-BoldMT'" font-size="8.6313">A</text>
	<text transform="matrix(0.5683 0 0 0.583 113.668 72.7119)" fill="#F9B233" font-family="'ArialMT'" font-size="8.6313">ck</text>
	<text transform="matrix(0.9748 0 0 1 112.9209 65.1621)" fill="#F9B233" font-family="'ArialMT'" font-size="5.0349">2</text>
</g>
<g>
	<text transform="matrix(0.9748 0 0 1 33.0869 69.8379)" fill="#F9B233" font-family="'Arial-BoldMT'" font-size="8.6316">A</text>
	<text transform="matrix(0.5683 0 0 0.583 39.1631 72.7119)" fill="#F9B233" font-family="'ArialMT'" font-size="8.6316">ak</text>
	<text transform="matrix(0.9748 0 0 1 38.416 65.1621)" fill="#F9B233" font-family="'ArialMT'" font-size="5.0351">1</text>
</g>
<g>
	<text transform="matrix(0.9748 0 0 1 55.4189 52.7432)" fill="#009FE3" font-family="'Arial-BoldMT'" font-size="6.2271">A</text>
	<text transform="matrix(0.5683 0 0 0.583 59.8022 54.8169)" fill="#009FE3" font-family="'ArialMT'" font-size="6.2271">bj</text>
	<text transform="matrix(0.9748 0 0 1 59.2627 49.3701)" fill="#009FE3" font-family="'ArialMT'" font-size="3.6325">2</text>
</g>
<g>
	<text transform="matrix(0.9748 0 0 1 69.5376 69.8008)" fill="#F9B233" font-family="'Arial-BoldMT'" font-size="8.4101">A</text>
	<text transform="matrix(0.5683 0 0 0.583 75.4575 72.6011)" fill="#F9B233" font-family="'ArialMT'" font-size="8.4101">bk</text>
	<text transform="matrix(0.9748 0 0 1 74.731 65.2451)" fill="#F9B233" font-family="'ArialMT'" font-size="4.9059">2</text>
</g>
<g>
	<defs>
		<rect id="SVGID_1_" x="10.464" y="81.773" width="106.392" height="16.305"/>
	</defs>
	<clipPath id="SVGID_2_">
		<use xlink:href="#SVGID_1_"  overflow="visible"/>
	</clipPath>
	<g clip-path="url(#SVGID_2_)">
		<text transform="matrix(1 0 0 1 14.2754 88.9741)" font-family="'ArialMT'" font-size="7.4966">C</text>
	</g>
	<g clip-path="url(#SVGID_2_)">
		<text transform="matrix(1 0 0 1 19.6328 90.0981)"><tspan x="0" y="0" fill="#009FE3" font-family="'ArialMT'" font-size="5.2476">j</tspan><tspan x="1.47" y="0" fill="#F9B233" font-family="'ArialMT'" font-size="5.2476">k</tspan></text>
	</g>
	<g clip-path="url(#SVGID_2_)">
		<text transform="matrix(1 0 0 1 26.1885 88.9741)" fill="#B2B2B2" font-family="'CMR10'" font-size="7.4966">=</text>
	</g>
	<path clip-path="url(#SVGID_2_)" fill="#B2B2B2" d="M32.731,92.349c-0.135,0-0.203,0-0.203-0.082c0-0.008,0-0.045,0.075-0.135
		l3.884-4.551l-3.966-5.43c0-0.082,0-0.225,0.007-0.248c0.023-0.045,0.03-0.051,0.203-0.051h8.862l0.907,2.105h-0.188
		c-0.255-0.607-0.764-0.943-0.952-1.064c-0.592-0.375-1.245-0.502-1.65-0.561c-0.067-0.016-0.75-0.121-1.754-0.121h-4.109
		l3.494,4.775c0.053,0.076,0.053,0.098,0.053,0.113c0,0.037-0.015,0.061-0.067,0.119l-3.816,4.477h4.521
		c1.439,0,2.174-0.195,2.332-0.232c0.862-0.225,1.657-0.734,1.949-1.514h0.188l-0.907,2.398H32.731z"/>
	<g clip-path="url(#SVGID_2_)">
		<text transform="matrix(1 0 0 1 36.5312 96.4375)" fill="#B2B2B2" font-family="'CMMI7'" font-size="4.815">i,s</text>
	</g>
	<g clip-path="url(#SVGID_2_)">
		<text transform="matrix(1 0 0 1 42.9307 88.9741)" fill="#B2B2B2" font-family="'CMR10'" font-size="7.4966">(</text>
	</g>
	<g clip-path="url(#SVGID_2_)">
		<text transform="matrix(1 0 0 1 45.8447 88.9741)" fill="#009FE3" font-family="'ArialMT'" font-size="7.4966">A</text>
	</g>
	<g clip-path="url(#SVGID_2_)">
		<text transform="matrix(1 0 0 1 51.4668 85.8794)" fill="#009FE3" font-family="'CMMI7'" font-size="5.2476">s</text>
	</g>
	<g clip-path="url(#SVGID_2_)">
		<text transform="matrix(1 0 0 1 51.4668 90.8267)" fill="#009FE3" font-family="'CMMI7'" font-size="5.2476">ij</text>
	</g>
	<g clip-path="url(#SVGID_2_)">
		<text transform="matrix(1 0 0 1 58.4131 88.9741)" fill="#009FE3" font-family="'CMSY10'" font-size="7.4966">−</text>
	</g>
	<g clip-path="url(#SVGID_2_)">
		<text transform="matrix(1 0 0 1 65.9092 88.9741)" fill="#009FE3" font-family="'ArialMT'" font-size="7.4966">A</text>
	</g>
	<g clip-path="url(#SVGID_2_)">
		<text transform="matrix(1 0 0 1 71.5322 90.0981)" fill="#009FE3" font-family="'CMMI7'" font-size="5.2476">ij</text>
	</g>
	<g clip-path="url(#SVGID_2_)">
		<text transform="matrix(1 0 0 1 75.3213 88.9741)" fill="#B2B2B2" font-family="'CMR10'" font-size="7.4966">)(</text>
	</g>
	<g clip-path="url(#SVGID_2_)">
		<text transform="matrix(1 0 0 1 80.4058 88.9741)" fill="#F9B233" font-family="'ArialMT'" font-size="7.4966">A</text>
	</g>
	<g clip-path="url(#SVGID_2_)">
		<text transform="matrix(1 0 0 1 86.0288 85.8794)" fill="#F9B233" font-family="'CMMI7'" font-size="5.2476">s</text>
	</g>
	<g clip-path="url(#SVGID_2_)">
		<text transform="matrix(1 0 0 1 86.0288 90.8267)" fill="#F9B233" font-family="'CMMI7'" font-size="5.2476">ik</text>
	</g>
	<g clip-path="url(#SVGID_2_)">
		<text transform="matrix(1 0 0 1 92.7598 88.9741)" fill="#F9B233" font-family="'CMSY10'" font-size="7.4966">−</text>
	</g>
	<g clip-path="url(#SVGID_2_)">
		<text transform="matrix(1 0 0 1 100.2559 88.9741)" fill="#F9B233" font-family="'ArialMT'" font-size="7.4966">A</text>
	</g>
	<g clip-path="url(#SVGID_2_)">
		<text transform="matrix(1 0 0 1 105.8779 90.0981)" fill="#F9B233" font-family="'CMMI7'" font-size="5.2476">ik</text>
	</g>
	<g clip-path="url(#SVGID_2_)">
		<text transform="matrix(1 0 0 1 110.1963 88.9741)" fill="#B2B2B2" font-family="'CMR10'" font-size="7.4966">)</text>
	</g>
</g>
</svg>
